<svg width="25" height="25" viewBox="0 0 25 25" fill="none" xmlns="http://www.w3.org/2000/svg">
<path d="M0.488647 12.5001C0.488647 14.0774 0.799333 15.6393 1.40296 17.0966C2.0066 18.5539 2.89135 19.878 4.00672 20.9934C5.12209 22.1088 6.44622 22.9935 7.90351 23.5972C9.36081 24.2008 10.9227 24.5115 12.5001 24.5115C14.0775 24.5115 15.6394 24.2008 17.0967 23.5972C18.554 22.9935 19.8781 22.1088 20.9935 20.9934C22.1088 19.878 22.9936 18.5539 23.5972 17.0966C24.2009 15.6393 24.5115 14.0774 24.5115 12.5001C24.5115 9.31442 23.2461 6.25927 20.9935 4.00669C18.7409 1.75411 15.6857 0.488625 12.5001 0.488625C9.31446 0.488625 6.2593 1.75411 4.00672 4.00669C1.75414 6.25927 0.488647 9.31442 0.488647 12.5001Z" fill="#FDDF6D"/>
<path d="M15.074 22.7381C8.44027 22.7381 3.06258 17.3605 3.06258 10.7268C3.06258 7.18262 4.59788 3.99746 7.03934 1.79893C3.15076 3.78721 0.488647 7.83262 0.488647 12.5C0.488647 19.1337 5.8663 24.5114 12.5 24.5114C15.5896 24.5114 18.4064 23.3445 20.5347 21.4279C18.8963 22.2655 17.0404 22.7381 15.074 22.7381Z" fill="#FCC56B"/>
<path d="M17.9645 20.3729H12.1316C11.8616 20.3729 11.6429 20.1541 11.6429 19.8842C11.6429 19.6143 11.8616 19.3956 12.1316 19.3956H17.9644C18.2343 19.3956 18.4531 19.6143 18.4531 19.8842C18.4531 20.1541 18.2344 20.3729 17.9645 20.3729ZM10.7951 15.3442C9.60679 15.3442 8.53316 15.0401 7.9232 14.5308C7.71602 14.3579 7.68833 14.0497 7.86128 13.8426C8.03418 13.6355 8.34229 13.6078 8.54947 13.7807C8.97603 14.1368 9.85748 14.3669 10.7951 14.3669C11.7103 14.3669 12.6038 14.1325 13.0715 13.7697C13.2847 13.6042 13.5915 13.643 13.757 13.8562C13.9225 14.0694 13.8837 14.3764 13.6705 14.5418C13.0229 15.0442 11.948 15.3442 10.7951 15.3442ZM19.2711 15.3442C18.0827 15.3442 17.0091 15.0401 16.3991 14.5308C16.192 14.3579 16.1643 14.0497 16.3372 13.8426C16.5102 13.6355 16.8183 13.6078 17.0254 13.7807C17.452 14.1368 18.3334 14.3669 19.271 14.3669C20.1862 14.3669 21.0798 14.1325 21.5474 13.7697C21.7606 13.6042 22.0676 13.643 22.233 13.8562C22.3984 14.0694 22.3597 14.3764 22.1464 14.5418C21.4988 15.0442 20.4239 15.3442 19.2711 15.3442ZM8.48091 12.8437C8.29932 12.8437 8.13033 12.8233 7.97969 12.7816C7.71958 12.7097 7.56709 12.4405 7.63902 12.1804C7.71099 11.9203 7.98042 11.7677 8.24029 11.8397C8.48082 11.9063 8.97447 11.8596 9.53531 11.6051C10.0843 11.3562 10.4569 11.0041 10.5828 10.7655C10.7087 10.5268 11.0042 10.4353 11.2429 10.5612C11.4816 10.6871 11.5731 10.9827 11.4472 11.2213C11.1911 11.7068 10.6273 12.1831 9.93892 12.4952C9.4358 12.7234 8.92154 12.8437 8.48091 12.8437ZM21.4594 12.8437C21.0187 12.8437 20.5046 12.7234 20.0013 12.4952C19.313 12.1831 18.7491 11.7069 18.4931 11.2214C18.3672 10.9827 18.4587 10.6872 18.6974 10.5613C18.9362 10.4352 19.2317 10.527 19.3575 10.7656C19.4834 11.0041 19.856 11.3562 20.4049 11.6051C20.9658 11.8595 21.4596 11.9063 21.6999 11.8397C21.9603 11.768 22.2292 11.9203 22.3012 12.1804C22.3731 12.4405 22.2206 12.7097 21.9605 12.7816C21.81 12.8233 21.6409 12.8437 21.4594 12.8437Z" fill="#7F184C"/>
<path d="M17.3614 0.980664C17.113 0.875586 16.8262 0.991992 16.7212 1.24058C16.6161 1.48916 16.7325 1.77588 16.9811 1.88081C21.2587 3.68818 24.0228 7.85649 24.0228 12.5C24.0228 18.8537 18.8537 24.0227 12.5001 24.0227C6.1465 24.0227 0.977248 18.8536 0.977248 12.5C0.977248 6.14629 6.14635 0.977295 12.5 0.977295C12.7699 0.977295 12.9886 0.758594 12.9886 0.488672C12.9886 0.21875 12.7699 0 12.5 0C5.60743 0 0 5.60742 0 12.5C0 19.3925 5.60743 25 12.5 25C19.3925 25 25 19.3926 25 12.5C25 7.46284 22.0017 2.94121 17.3614 0.980664Z" fill="black"/>
<path d="M12.1316 19.3956C11.8616 19.3956 11.6429 19.6143 11.6429 19.8842C11.6429 20.1542 11.8616 20.3729 12.1316 20.3729H17.9644C18.2344 20.3729 18.4531 20.1542 18.4531 19.8842C18.4531 19.6143 18.2344 19.3956 17.9644 19.3956H12.1316ZM8.54957 13.7808C8.34235 13.6077 8.03429 13.6355 7.86139 13.8427C7.68839 14.0499 7.71617 14.358 7.9233 14.5309C8.53326 15.0401 9.6069 15.3442 10.7952 15.3442C11.948 15.3442 13.023 15.0443 13.6707 14.5419C13.8839 14.3765 13.9227 14.0695 13.7572 13.8563C13.5918 13.643 13.2849 13.6044 13.0717 13.7698C12.604 14.1325 11.7104 14.367 10.7953 14.367C9.85758 14.367 8.97609 14.1368 8.54957 13.7808ZM16.3992 14.5309C17.0092 15.0401 18.0828 15.3442 19.2711 15.3442C20.4239 15.3442 21.4989 15.0443 22.1466 14.5419C22.3598 14.3765 22.3986 14.0695 22.2331 13.8563C22.0677 13.643 21.7607 13.6044 21.5476 13.7698C21.0799 14.1325 20.1863 14.367 19.2712 14.367C18.3336 14.367 17.4521 14.1369 17.0256 13.7808C16.8184 13.6078 16.5103 13.6356 16.3374 13.8427C16.1643 14.0498 16.192 14.358 16.3992 14.5309ZM8.48092 12.8438C8.92155 12.8438 9.43571 12.7235 9.93888 12.4953C10.6273 12.1832 11.1912 11.707 11.4471 11.2215C11.5731 10.9828 11.4816 10.6873 11.2428 10.5614C11.0041 10.4353 10.7086 10.527 10.5827 10.7657C10.4569 11.0042 10.0842 11.3563 9.53527 11.6052C8.97443 11.8596 8.48082 11.9065 8.2403 11.8398C7.98038 11.7681 7.711 11.9203 7.63902 12.1804C7.5671 12.4404 7.71949 12.7097 7.97965 12.7817C8.13029 12.8233 8.29933 12.8438 8.48092 12.8438ZM20.0014 12.4953C20.5047 12.7235 21.0188 12.8438 21.4595 12.8438C21.641 12.8438 21.8101 12.8233 21.9607 12.7816C22.2207 12.7096 22.3732 12.4404 22.3012 12.1803C22.2841 12.1185 22.255 12.0606 22.2155 12.01C22.176 11.9594 22.127 11.9171 22.0711 11.8855C22.0153 11.8539 21.9538 11.8336 21.8901 11.8257C21.8264 11.8179 21.7618 11.8227 21.6999 11.8398C21.4597 11.9061 20.966 11.8597 20.405 11.6052C19.8561 11.3564 19.4834 11.0042 19.3577 10.7657C19.2318 10.527 18.9363 10.4354 18.6975 10.5614C18.4588 10.6873 18.3674 10.9829 18.4932 11.2215C18.7492 11.707 19.313 12.1832 20.0014 12.4953Z" fill="black"/>
<path d="M15.0925 0.919974C15.0925 1.04956 15.144 1.17385 15.2356 1.26548C15.3273 1.35712 15.4516 1.4086 15.5812 1.4086C15.7107 1.4086 15.835 1.35712 15.9267 1.26548C16.0183 1.17385 16.0698 1.04956 16.0698 0.919974C16.0698 0.790383 16.0183 0.6661 15.9267 0.574465C15.835 0.48283 15.7107 0.431351 15.5812 0.431351C15.4516 0.431351 15.3273 0.48283 15.2356 0.574465C15.144 0.6661 15.0925 0.790383 15.0925 0.919974Z" fill="black"/>
</svg>
