<svg width="25" height="25" viewBox="0 0 25 25" fill="none" xmlns="http://www.w3.org/2000/svg">
<path d="M24.5114 12.5C24.5114 19.1337 19.1337 24.5114 12.5 24.5114C5.86625 24.5114 0.488617 19.1337 0.488617 12.5C0.488617 5.8663 5.8663 0.488617 12.5 0.488617C14.0973 0.488617 15.6218 0.800384 17.0159 1.3664C21.4116 3.15112 24.5114 7.46362 24.5114 12.5Z" fill="#FDDF6D"/>
<path d="M15.074 22.7382C8.44028 22.7382 3.06259 17.3606 3.06259 10.7268C3.06259 7.18267 4.59789 3.99752 7.03935 1.79898C3.15073 3.78721 0.488617 7.83272 0.488617 12.5C0.488617 19.1337 5.86625 24.5114 12.5 24.5114C15.5895 24.5114 18.4063 23.3445 20.5346 21.4279C18.8963 22.2656 17.0404 22.7382 15.074 22.7382Z" fill="#FCC56B"/>
<path d="M12.0261 9.2706C11.7562 9.2706 11.5375 9.0518 11.5375 8.78198C11.5375 8.15171 11.0247 7.63896 10.3944 7.63896C9.76416 7.63896 9.25142 8.15175 9.25142 8.78198C9.25142 9.05185 9.03262 9.2706 8.76279 9.2706C8.49292 9.2706 8.27417 9.0518 8.27417 8.78198C8.27417 7.61284 9.22539 6.66167 10.3945 6.66167C11.5636 6.66167 12.5148 7.61284 12.5148 8.78198C12.5147 9.0518 12.2959 9.2706 12.0261 9.2706ZM20.2791 9.2706C20.0093 9.2706 19.7905 9.0518 19.7905 8.78198C19.7905 8.15171 19.2778 7.63896 18.6475 7.63896C18.0172 7.63896 17.5045 8.15175 17.5045 8.78198C17.5045 9.05185 17.2857 9.2706 17.0159 9.2706C16.746 9.2706 16.5272 9.0518 16.5272 8.78198C16.5272 7.61284 17.4785 6.66167 18.6476 6.66167C19.8167 6.66167 20.7679 7.61284 20.7679 8.78198C20.7678 9.0518 20.549 9.2706 20.2791 9.2706Z" fill="#7F184C"/>
<path d="M14.2477 21.2777C10.7754 21.2777 7.96069 18.4629 7.96069 14.9907H20.5346C20.5346 18.4629 17.7198 21.2777 14.2477 21.2777Z" fill="white"/>
<path d="M7.33828 11.7564C6.44629 11.7564 5.72314 12.4795 5.72314 13.3715H8.95347C8.95337 12.4795 8.23027 11.7564 7.33828 11.7564ZM21.4265 11.7564C20.5345 11.7564 19.8113 12.4795 19.8113 13.3715H23.0416C23.0416 12.4795 22.3186 11.7564 21.4265 11.7564Z" fill="#F9A880"/>
<path d="M8.57877 17.7124C8.74385 18.0552 8.93972 18.3823 9.16397 18.6897H19.3314C19.5556 18.3823 19.7515 18.0552 19.9166 17.7124H8.57877Z" fill="#E6E6E6"/>
<path d="M22.8454 5.48208C21.4699 3.45806 19.5525 1.89272 17.3009 0.955371C17.052 0.85166 16.7658 0.969531 16.6621 1.21865C16.5584 1.46777 16.6762 1.75386 16.9253 1.85762C21.2368 3.65254 24.0227 7.82998 24.0227 12.5C24.0227 18.8538 18.8536 24.0228 12.5 24.0228C6.14629 24.0228 0.977295 18.8536 0.977295 12.5C0.977295 6.14639 6.14629 0.977295 12.5 0.977295C12.7699 0.977295 12.9886 0.758496 12.9886 0.488672C12.9886 0.218848 12.7699 0 12.5 0C5.60742 0 0 5.60742 0 12.5C0 19.3926 5.60742 25 12.5 25C19.3926 25 25 19.3926 25 12.5C25 9.98276 24.255 7.55605 22.8454 5.48208Z" fill="black"/>
<path d="M9.25136 8.78198C9.25136 8.15171 9.76415 7.63896 10.3944 7.63896C11.0246 7.63896 11.5374 8.15171 11.5374 8.78198C11.5374 9.05185 11.7562 9.2706 12.026 9.2706C12.2959 9.2706 12.5146 9.0518 12.5146 8.78198C12.5146 7.61284 11.5635 6.66167 10.3943 6.66167C9.22519 6.66167 8.27402 7.61284 8.27402 8.78198C8.27402 9.05185 8.49282 9.2706 8.76264 9.2706C9.03261 9.2706 9.25136 9.0519 9.25136 8.78198ZM18.6475 6.66172C17.4783 6.66172 16.5271 7.61289 16.5271 8.78203C16.5271 9.0519 16.7459 9.27065 17.0158 9.27065C17.2856 9.27065 17.5044 9.05185 17.5044 8.78203C17.5044 8.15175 18.0172 7.63901 18.6474 7.63901C19.2776 7.63901 19.7904 8.15175 19.7904 8.78203C19.7904 9.0519 20.0092 9.27065 20.279 9.27065C20.5489 9.27065 20.7677 9.05185 20.7677 8.78203C20.7678 7.61289 19.8166 6.66172 18.6475 6.66172ZM7.47202 14.9907C7.47202 18.7268 10.5116 21.7663 14.2477 21.7663C17.9837 21.7663 21.0233 18.7268 21.0233 14.9907C21.0233 14.7208 20.8045 14.502 20.5347 14.502H7.96064C7.69081 14.502 7.47202 14.7208 7.47202 14.9907ZM20.0256 15.4793C19.7767 18.4488 17.2803 20.7891 14.2477 20.7891C11.215 20.7891 8.7186 18.4489 8.46972 15.4793H20.0256Z" fill="black"/>
<path d="M14.9237 0.854788C14.9237 0.984379 14.9752 1.10866 15.0669 1.2003C15.1585 1.29193 15.2828 1.34341 15.4124 1.34341C15.5419 1.34341 15.6662 1.29193 15.7579 1.2003C15.8495 1.10866 15.901 0.984379 15.901 0.854788C15.901 0.725197 15.8495 0.600914 15.7579 0.50928C15.6662 0.417645 15.5419 0.366165 15.4124 0.366165C15.2828 0.366165 15.1585 0.417645 15.0669 0.50928C14.9752 0.600914 14.9237 0.725197 14.9237 0.854788Z" fill="black"/>
</svg>
