<svg width="25" height="25" viewBox="0 0 25 25" fill="none" xmlns="http://www.w3.org/2000/svg">
<path d="M0.488678 12.5001C0.488678 15.6857 1.75416 18.7408 4.00674 20.9934C6.25931 23.246 9.31446 24.5115 12.5001 24.5115C15.6857 24.5115 18.7408 23.246 20.9934 20.9934C23.246 18.7408 24.5115 15.6857 24.5115 12.5001C24.5115 9.31446 23.246 6.25931 20.9934 4.00674C18.7408 1.75416 15.6857 0.488678 12.5001 0.488678C9.31446 0.488678 6.25931 1.75416 4.00674 4.00674C1.75416 6.25931 0.488678 9.31446 0.488678 12.5001Z" fill="#FDDF6D"/>
<path d="M15.074 22.7382C8.44029 22.7382 3.06265 17.3605 3.06265 10.7268C3.06265 7.18268 4.59795 3.99752 7.03941 1.79898C3.15073 3.78722 0.488617 7.83268 0.488617 12.5C0.488617 19.1337 5.86626 24.5113 12.5 24.5113C15.5895 24.5113 18.4063 23.3445 20.5346 21.4279C18.8964 22.2656 17.0404 22.7382 15.074 22.7382Z" fill="#FCC56B"/>
<path d="M8.94211 8.78185C8.94211 9.17064 9.09655 9.5435 9.37147 9.81842C9.64638 10.0933 10.0192 10.2478 10.408 10.2478C10.7968 10.2478 11.1697 10.0933 11.4446 9.81842C11.7195 9.5435 11.874 9.17064 11.874 8.78185C11.874 8.39307 11.7195 8.02021 11.4446 7.74529C11.1697 7.47038 10.7968 7.31593 10.408 7.31593C10.0192 7.31593 9.64638 7.47038 9.37147 7.74529C9.09655 8.02021 8.94211 8.39307 8.94211 8.78185Z" fill="white"/>
<path d="M17.1956 8.78185C17.1956 9.17064 17.35 9.5435 17.6249 9.81842C17.8998 10.0933 18.2727 10.2478 18.6615 10.2478C19.0503 10.2478 19.4231 10.0933 19.698 9.81842C19.973 9.5435 20.1274 9.17064 20.1274 8.78185C20.1274 8.39307 19.973 8.02021 19.698 7.74529C19.4231 7.47038 19.0503 7.31593 18.6615 7.31593C18.2727 7.31593 17.8998 7.47038 17.6249 7.74529C17.35 8.02021 17.1956 8.39307 17.1956 8.78185Z" fill="white"/>
<path d="M7.33824 11.7564C6.44625 11.7564 5.72305 12.4795 5.72305 13.3716H8.95333C8.95343 12.4795 8.23024 11.7564 7.33824 11.7564ZM21.4265 11.54C20.5345 11.54 19.8113 12.2631 19.8113 13.1551H23.0416C23.0416 12.2632 22.3185 11.54 21.4265 11.54Z" fill="#F9A880"/>
<path d="M19.3299 17.3424H10.5117C10.2418 17.3424 10.0231 17.1236 10.0231 16.8538C10.0231 16.584 10.2418 16.3652 10.5117 16.3652H19.3299C19.5998 16.3652 19.8185 16.584 19.8185 16.8538C19.8185 17.1236 19.5998 17.3424 19.3299 17.3424Z" fill="#7F184C"/>
<path d="M22.8167 5.43985C21.4221 3.40582 19.4817 1.84151 17.2052 0.91592C16.955 0.814259 16.6701 0.934621 16.5685 1.18452C16.4668 1.43452 16.5871 1.71953 16.8371 1.82119C18.9357 2.67442 20.7247 4.11681 22.0106 5.99244C23.327 7.91242 24.0228 10.1627 24.0228 12.5C24.0228 18.8537 18.8537 24.0227 12.5001 24.0227C6.14645 24.0227 0.977297 18.8537 0.977297 12.5C0.977297 6.14625 6.14635 0.977297 12.5 0.977297C12.7699 0.977297 12.9886 0.758498 12.9886 0.488673C12.9886 0.218848 12.7699 0 12.5 0C5.60743 0 0 5.60748 0 12.5C0 19.3925 5.60743 25 12.5 25C19.3925 25 25 19.3925 25 12.5C25 9.96462 24.2451 7.52321 22.8167 5.43985Z" fill="black"/>
<path d="M12.363 8.78204C12.363 7.70431 11.4862 6.8275 10.4084 6.8275C9.3307 6.8275 8.45389 7.70431 8.45389 8.78204C8.45389 9.85978 9.3307 10.7366 10.4084 10.7366C11.4862 10.7366 12.363 9.85978 12.363 8.78204ZM9.43114 8.78204C9.43114 8.24318 9.86956 7.80475 10.4084 7.80475C10.9473 7.80475 11.3857 8.24318 11.3857 8.78204C11.3857 9.32091 10.9473 9.75934 10.4084 9.75934C9.86956 9.75934 9.43114 9.32091 9.43114 8.78204ZM20.6161 8.78204C20.6161 7.70431 19.7393 6.8275 18.6615 6.8275C17.5838 6.8275 16.707 7.70431 16.707 8.78204C16.707 9.85978 17.5838 10.7366 18.6615 10.7366C19.7393 10.7366 20.6161 9.85978 20.6161 8.78204ZM17.6842 8.78204C17.6842 8.24318 18.1227 7.80475 18.6615 7.80475C19.2004 7.80475 19.6388 8.24318 19.6388 8.78204C19.6388 9.32091 19.2004 9.75934 18.6615 9.75934C18.1227 9.75934 17.6842 9.32091 17.6842 8.78204ZM10.0231 16.8538C10.0231 17.1237 10.2418 17.3425 10.5117 17.3425H19.3299C19.5999 17.3425 19.8186 17.1237 19.8186 16.8538C19.8186 16.584 19.5999 16.3652 19.3299 16.3652H10.5117C10.4475 16.3652 10.384 16.3778 10.3247 16.4024C10.2654 16.4269 10.2115 16.4629 10.1662 16.5083C10.1208 16.5537 10.0848 16.6075 10.0602 16.6668C10.0357 16.7261 10.0231 16.7897 10.0231 16.8538Z" fill="black"/>
<path d="M14.9902 0.915382C14.9902 1.04497 15.0417 1.16926 15.1333 1.26089C15.2249 1.35253 15.3492 1.40401 15.4788 1.40401C15.6084 1.40401 15.7327 1.35253 15.8243 1.26089C15.9159 1.16926 15.9674 1.04497 15.9674 0.915382C15.9674 0.785791 15.9159 0.661507 15.8243 0.569872C15.7327 0.478238 15.6084 0.426758 15.4788 0.426758C15.3492 0.426758 15.2249 0.478238 15.1333 0.569872C15.0417 0.661507 14.9902 0.785791 14.9902 0.915382Z" fill="black"/>
</svg>
